PathFileType	4	(X/Y/Z)	Patient4_TMGait_0pt6_01_right_43.trc.trc
DataRate	CameraRate	NumFrames	NumMarkers	Units	OrigDataRate	OrigDataStartFrame	OrigNumFrames
83.333333333333	83.333333333333	4	33	mm	83.333333333333	124	       141
Frame#	Time	Sacral			L.Shoulder			Chest			R.Shoulder			Neck			R.ASIS			L.ASIS			R.Thigh.Superior			R.Thigh.Lateral			R.Thigh.Inferior			R.Patella			L.Thigh.Superior			L.Thigh.Lateral			L.Thigh.Inferior			L.Patella			L.Shank.Superior			L.Shank.Lateral			L.Shank.Inferior			R.Shank.Superior			R.Shank.Lateral			R.Shank.Inferior			R.Heel			R.Midfoot.Superior			R.Midfoot.Lateral			R.Toe			L.Heel			L.Midfoot.Lateral			L.Midfoot.Superior			L.Toe			L.Elbow			L.Wrist			R.Elbow			R.Wrist			
		X1	Y1	Z1	X2	Y2	Z2	X3	Y3	Z3	X4	Y4	Z4	X5	Y5	Z5	X6	Y6	Z6	X7	Y7	Z7	X8	Y8	Z8	X9	Y9	Z9	X10	Y10	Z10	X11	Y11	Z11	X12	Y12	Z12	X13	Y13	Z13	X14	Y14	Z14	X15	Y15	Z15	X16	Y16	Z16	X17	Y17	Z17	X18	Y18	Z18	X19	Y19	Z19	X20	Y20	Z20	X21	Y21	Z21	X22	Y22	Z22	X23	Y23	Z23	X24	Y24	Z24	X25	Y25	Z25	X26	Y26	Z26	X27	Y27	Z27	X28	Y28	Z28	X29	Y29	Z29	X30	Y30	Z30	X31	Y31	Z31	X32	Y32	Z32	X33	Y33	Z33	

124	53.196000000000	812.906649823767	1000.451347902128	430.168721481194	1007.973324415825	1428.852488121926	262.498795980930	1095.875076444425	1358.083398709997	430.134325987136	995.990609021605	1429.723518792049	595.590379853407	974.611570841206	1486.233609542281	414.772578059587	1029.955135133954	937.766215029058	564.683513156825	1038.707336366468	950.021061902673	290.173129080214	1101.279923108481	755.531561576230	537.480334077000	1042.452937443331	635.982560750119	600.655382245184	1129.252247202051	596.739874392460	522.168994907406	1151.192521365322	512.440921826932	532.707541198908	1037.191138204834	719.380132110369	324.647649625169	924.808218538424	623.478048147240	258.766845661433	982.055384581177	530.121725386700	327.831766964422	964.464527743380	459.731436969584	337.224223169571	920.978256143423	395.857254409833	327.534004061660	807.588282212431	306.015931925301	275.358591533288	827.193285489003	186.508072208310	346.119396836687	1136.569310300930	421.180983110082	541.816764667849	1081.686380254459	308.139106212540	603.738092970302	1144.861696278691	221.458626811461	546.823930805264	1042.025426552583	43.490723350657	517.441956581920	1209.215549726433	106.795342006334	554.154345473664	1126.593952996137	38.573181635071	590.418026264504	1331.669593056756	61.327797232481	577.950298182886	671.198477614951	48.246975528720	386.084263734572	743.431880388433	40.119875862579	305.089147050002	830.828953175504	96.957390642085	329.484592830532	954.818207324543	38.194793798155	296.906022624748	1009.577740475336	1080.398491223524	132.353809841531	1246.385200782051	999.561936228452	183.346047134423	862.561024294384	1109.780054805986	701.050292375384	839.702325872859	852.196090603361	732.696697547334	
125	53.208000000000	814.390963767054	999.321627841013	432.638614153975	1007.705409454959	1427.620250402557	264.578747839945	1096.354127054384	1357.644641488891	432.258159337325	996.511142532811	1429.085470287198	597.933707034430	974.679012768814	1485.434832806142	416.827656772020	1031.657588393852	936.646615009080	566.970095284808	1040.054678072078	949.174376715912	292.620445863566	1102.370673935785	753.291750147413	540.092354131167	1040.886112353506	633.791870586994	601.020240235427	1128.715750926415	594.664404298803	523.545212639708	1148.867770215531	509.475145029532	532.661334857858	1039.356102081737	718.593379954417	325.706434326164	926.754168057258	622.390961211813	260.731330146003	985.302256696240	528.727824179138	328.636679513196	967.883264574371	457.209039837830	337.518344419769	921.932775846034	394.303249158347	328.154556800316	806.150970420312	307.508577337840	275.980572696841	823.174266904030	187.133720416936	345.807672576482	1133.347545427030	418.155872525564	541.162855633859	1076.795810668407	305.660646909292	602.646671054750	1138.123039849357	218.209522762576	545.045210846209	1031.612050936351	42.793965270776	516.005972980309	1200.157757504185	103.316659701823	551.396655367290	1116.175833339434	37.529168732878	588.957947581022	1322.069120145492	55.442857582505	575.518198263146	664.470060280715	51.775394620377	385.647648005349	736.562003978656	41.773372916424	304.846589211502	824.850860679694	97.497243345075	328.790853315465	947.663447450438	37.958761642530	296.834270417511	1009.309620348996	1078.195508226563	135.883085367162	1245.632175842235	995.137341123843	186.588295392938	865.471622502520	1107.889668801256	702.889953177987	845.571455676212	849.693861067337	733.560794786409	
126	53.220000000000	815.730631117994	998.544328845249	435.081707500355	1007.487100679235	1426.741181353305	266.718472056902	1096.845811504355	1357.470752172264	434.431362722345	997.086432630584	1428.727986894465	600.341126206351	974.823856247249	1484.972699358516	418.951434986842	1033.222376223136	935.997799589157	569.298823026673	1041.324289596310	948.611396393827	295.095141937410	1103.278564131106	751.472931204036	542.632727694246	1039.625144119098	632.289194692327	601.736667982760	1128.021496792607	593.106240512054	524.841024610285	1146.725518982399	507.157308653081	532.855743021794	1042.014166503594	718.178624276024	326.920126081969	929.578145946007	621.371087948930	262.800845392359	989.760763773205	527.528895038666	329.519129398019	972.631876597259	454.729199432158	337.717438261417	924.014831748870	392.862268172587	328.716703027420	805.668826370965	309.508267944739	276.637558811475	819.880598799184	188.201279934563	345.359700722377	1130.348854479784	415.794537902059	540.848586050854	1072.412852204976	303.825464604964	602.099219209944	1131.842501791872	215.622871461436	543.734558578907	1021.837848810922	42.414418111631	515.157557645431	1191.607067343799	100.624780118268	549.217622817347	1106.475243616511	36.911798484530	588.004440384317	1313.097826683691	50.581533938847	573.573628729399	658.121599444394	56.456158892465	385.148948716293	729.900199139918	44.076574152452	304.564091475819	819.342260876553	98.222923180950	327.938193191850	940.516913550287	37.730315795868	296.779350837954	1008.790378828759	1076.220171551273	139.709588885231	1244.333203800267	989.776470556543	189.750498166772	869.036326020217	1106.022585717315	704.963387359872	852.905371572928	847.138063919547	734.551306340874	
127	53.232000000000	816.909119091913	998.158326052095	437.490607395588	1007.356526935934	1426.267254025893	268.884633584708	1097.336135223173	1357.585214292806	436.626761259958	997.696821943290	1428.708473742435	602.754164208375	975.023002592273	1484.877438792997	421.102458565610	1034.594133703349	935.867431330377	571.696203306092	1042.504286136377	948.368719053402	297.600496006078	1103.936473153686	750.178780562161	545.052402808553	1038.720676335754	631.515526873868	602.863923332201	1127.152937025136	592.086038985639	526.094499190153	1144.695772804054	505.503800951289	533.414132588510	1045.119943595490	718.172762908348	328.367050374061	933.332658924665	620.449625359106	264.931507961673	995.444927926792	526.584466615564	330.490898655686	978.707200834110	452.385092467616	337.817354236419	927.294143901801	391.597668734792	329.191637048711	806.253764480473	312.073343646283	277.308215718340	817.434835703008	189.791338036360	344.764412971784	1127.532248079226	414.115290695022	540.961413331130	1068.489119489910	302.631782855969	602.113937527586	1126.055796622796	213.739984430163	542.953731325832	1012.887800670228	42.312269030359	514.815908257155	1183.673029250051	98.745773536568	547.690947941492	1097.642058581018	36.648073696828	587.507506402983	1304.860492000258	46.859674532136	572.198332485925	652.296247691008	62.460233287675	384.576760874846	723.542013299144	47.182551453397	304.229667152881	814.404722250736	99.173611964233	326.934786228848	933.393408788409	37.500785521290	296.750672915580	1008.064864848391	1074.557092863870	143.824979300669	1242.452893586404	983.499838055440	192.811676222604	873.145586379023	1104.305035196659	707.232643665304	861.607034441087	844.712743235689	735.693233897038	
